/* XPM */
static char *coin1680158853[] = {
/* columns rows colors chars-per-pixel */
"50 50 237 2 ",
"   c #F2F162",
".  c #B9BB59",
"X  c #ACAF55",
"o  c #ACAE55",
"O  c #ADAF55",
"+  c #ABAE55",
"@  c #AFB155",
"#  c #B0B255",
"$  c #B1B356",
"%  c #D4D460",
"&  c #F1F063",
"*  c #B0B258",
"=  c #445C58",
"-  c #1683B8",
";  c #1187C0",
":  c #216F97",
">  c #37464F",
",  c #E0E062",
"<  c #D8D95D",
"1  c #3E7E88",
"2  c #166692",
"3  c #186893",
"4  c #128BC6",
"5  c #1399D6",
"6  c #1073A9",
"7  c #116191",
"8  c #6A8C72",
"9  c #EFEE62",
"0  c #D2D35D",
"q  c #3D5056",
"w  c #1A436C",
"e  c #1C4872",
"r  c #1A4670",
"t  c #0D3E69",
"y  c #1395D2",
"u  c #0E5788",
"i  c #143B64",
"p  c #1A4671",
"a  c #1B4872",
"s  c #193B63",
"d  c #4E594A",
"f  c #EBEA63",
"g  c #B3B556",
"h  c #2B4762",
"j  c #4B9BCD",
"k  c #55AFE3",
"l  c #55AEE2",
"z  c #33719F",
"x  c #0C4673",
"c  c #124C7A",
"v  c #3873A1",
"b  c #4B9BCC",
"n  c #3E80AE",
"m  c #3C4646",
"M  c #A3A654",
"N  c #E0E060",
"B  c #989C51",
"V  c #162441",
"C  c #3C7CAB",
"Z  c #4289B8",
"A  c #51A8DB",
"S  c #54ADE1",
"D  c #1B3D63",
"F  c #066694",
"G  c #0597CC",
"H  c #093E66",
"J  c #30638E",
"K  c #4A99CA",
"L  c #4288B8",
"P  c #0B183C",
"I  c #091336",
"U  c #C4C55B",
"Y  c #D6D75D",
"T  c #2B333D",
"R  c #0C355C",
"E  c #0C3158",
"W  c #21456D",
"Q  c #27517A",
"!  c #4084B3",
"~  c #0E3B63",
"^  c #04ABE2",
"/  c #0598CC",
"(  c #2A5781",
")  c #4E9BC9",
"_  c #2D5A84",
"`  c #152C52",
"'  c #075D8A",
"]  c #0A193C",
"[  c #787D4D",
"{  c #E8E861",
"}  c #EBEB63",
"|  c #1B2A40",
" . c #0771A1",
".. c #049ACE",
"X. c #067EAF",
"o. c #0C426B",
"O. c #104A74",
"+. c #092045",
"@. c #0B4672",
"#. c #0A3F6A",
"$. c #0C2B51",
"%. c #0F4770",
"&. c #093A62",
"*. c #075580",
"=. c #073D65",
"-. c #656C4B",
";. c #F1F062",
":. c #9FA254",
">. c #07375E",
",. c #0598CD",
"<. c #0AA7DE",
"1. c #0B3760",
"2. c #1288C2",
"3. c #075581",
"4. c #0673A2",
"5. c #293E49",
"6. c #D5D65E",
"7. c #E4E460",
"8. c #353D41",
"9. c #066E9E",
"0. c #05A9E0",
"q. c #0A3159",
"w. c #1287C0",
"e. c #0F6CA1",
"r. c #0784B5",
"t. c #0C1C3F",
"y. c #898D51",
"u. c #DBDB5E",
"i. c #424B45",
"p. c #0EA0DA",
"a. c #09A6DF",
"s. c #04AAE1",
"d. c #0D5E8F",
"f. c #0D5382",
"g. c #092950",
"h. c #058BBE",
"j. c #05A5DB",
"k. c #0B3E64",
"l. c #969952",
"z. c #ADAF58",
"x. c #104266",
"c. c #0690C4",
"v. c #0D416C",
"b. c #138DC7",
"n. c #0D416D",
"m. c #08284E",
"M. c #07365E",
"N. c #83874E",
"B. c #404841",
"V. c #0C5F8F",
"C. c #06A8E0",
"Z. c #0591C5",
"A. c #081235",
"S. c #106DA2",
"D. c #0B3660",
"F. c #0678A8",
"G. c #066997",
"H. c #334448",
"J. c #DCDD5F",
"K. c #DFDF63",
"L. c #4F5A4A",
"P. c #066391",
"I. c #04A5DC",
"U. c #075E8B",
"Y. c #0E4F7D",
"T. c #1393CF",
"R. c #0E5A8B",
"E. c #081438",
"W. c #04A0D6",
"Q. c #07719F",
"!. c #0A193B",
"~. c #B5B758",
"^. c #0F1B39",
"/. c #0C96CE",
"(. c #066290",
"). c #1288C1",
"_. c #0E5686",
"`. c #065F8C",
"'. c #059BD0",
"]. c #072E55",
"[. c #9B9E52",
"{. c #AAAD57",
"}. c #163F5F",
"|. c #0BA2D9",
" X c #09406A",
".X c #0F689B",
"XX c #1078AE",
"oX c #09183B",
"OX c #0583B5",
"+X c #0672A1",
"@X c #4E5644",
"#X c #E0E05F",
"$X c #49564C",
"%X c #0872A3",
"&X c #07456E",
"*X c #0A2247",
"=X c #1397D4",
"-X c #1075AB",
";X c #074871",
":X c #07527E",
">X c #3D4945",
",X c #ECEB64",
"<X c #0E3F68",
"1X c #108AC2",
"2X c #0A2E55",
"3X c #1179AF",
"4X c #06608D",
"5X c #183C56",
"6X c #AFB156",
"7X c #848951",
"8X c #1273A4",
"9X c #106CA0",
"0X c #0D436F",
"qX c #083F68",
"wX c #626847",
"eX c #687250",
"rX c #117AB2",
"tX c #0D426F",
"yX c #0B345D",
"uX c #075883",
"iX c #68704D",
"pX c #D8D85E",
"aX c #33606F",
"sX c #0F5D8E",
"dX c #0A2F57",
"fX c #7B804B",
"gX c #A0A457",
"hX c #0D193A",
"jX c #0F669A",
"kX c #1E425B",
"lX c #CCCC5C",
"zX c #C7C85B",
"xX c #0A274F",
"cX c #6B7852",
"vX c #EFEF62",
"bX c #979A51",
"nX c #EDEC62",
/* pixels */
"                                                                                                    ",
"                                                                                                    ",
"                                                                                                    ",
"                                                                                                    ",
"                                                                                                    ",
"                                                                                                    ",
"                                                                                                    ",
"                                                                                                    ",
"                                                                                                    ",
"                                                                                                    ",
"                                                                                                    ",
"                                                                                                    ",
"                                                                                                    ",
"                                      . X o O + o O @ # $ # %                                       ",
"                                & * = - ; ; ; ; ; ; ; ; ; ; : > ,                                   ",
"                            < 1 2 3 4 5 5 5 5 5 5 5 5 5 5 5 5 6 7 7 8 9                             ",
"                          0 q w e r r t 5 5 5 5 5 5 5 5 5 y u i p a s d f                           ",
"                        g h j k k k l z x x x x x x x x x c v b k k k n m M N                       ",
"                      B V C Z A k k S D F G G G G G G G G H J k k k K L P I U                       ",
"                      Y T R E W Q ! S ~ ^ ^ ^ ^ ^ ^ ^ ^ ^ / ( ) _ Q ` ' ] [ {                       ",
"                        } |  ...X.o.O.+.@.@.@.@.@.@.@.@.@.#.$.%.&.*...=.-.;.                        ",
"                          :.>.,.^ ^ <.1.5 5 5 5 5 5 5 5 5 2.3.^ ^ ^ 4.5.6.                          ",
"                          7.8.9.^ ^ 0.q.w.5 5 5 5 5 5 5 5 e.3.^ ^ r.t.y.                            ",
"                            u.i.p.a.s.d.f.5 5 5 5 5 5 5 5 g.h.^ j.k.l.;.                            ",
"                              z.x.G ^ c.v.b.5 5 5 5 5 5 n.m.^ ^ M.N.                                ",
"                                B.V.C.Z.A.S.5 5 5 5 5 5 D.F.^ G.H.J.                                ",
"                                K.L.P.I.U.Y.T.5 5 5 5 R.E.W.Q.!.:.                                  ",
"                                  ~.^./.(.A.).5 5 5 5 _.`.'.].[.                                    ",
"                                    {.}.|. X.X5 5 5 XXoXOX+X@X#X                                    ",
"                                      $X%X&X*X=X5 5 -X;X:X>X7.                                      ",
"                                      ,X<X1X2X3X5 5 m.4X5X6X                                        ",
"                                        7X8X9X0X5 5 qX`.wX                                          ",
"                                          eXrXtX5 yXuXiX9                                           ",
"                                          pXaXsX-XdXfX;.                                            ",
"                                            gXhXjXkXlX                                              ",
"                                              zXxXcX                                                ",
"                                              vXbXnX                                                ",
"                                                                                                    ",
"                                                                                                    ",
"                                                                                                    ",
"                                                                                                    ",
"                                                                                                    ",
"                                                                                                    ",
"                                                                                                    ",
"                                                                                                    ",
"                                                                                                    ",
"                                                                                                    ",
"                                                                                                    ",
"                                                                                                    ",
"                                                                                                    "
};
