/* XPM */
static char *door1680158854[] = {
/* columns rows colors chars-per-pixel */
"50 50 189 2 ",
"   c #1E0F02",
".  c #251303",
"X  c #2B1603",
"o  c #2E1804",
"O  c #271708",
"+  c #2C1C0C",
"@  c #321A03",
"#  c #391E02",
"$  c #321D0A",
"%  c #291E13",
"&  c #251B12",
"*  c #3E2102",
"=  c #34210E",
"-  c #3B240C",
";  c #2C2117",
":  c #2C241C",
">  c #322214",
",  c #3C2710",
"<  c #32261A",
"1  c #35281B",
"2  c #3B2B1B",
"3  c #3B2916",
"4  c #342C24",
"5  c #3A2E22",
"6  c #342F2A",
"7  c #3E3123",
"8  c #36312C",
"9  c #3A342C",
"0  c #363331",
"q  c #3A3632",
"w  c #3E3A34",
"e  c #3F3C39",
"r  c #432302",
"t  c #492702",
"y  c #4D2902",
"u  c #44280B",
"i  c #542D02",
"p  c #582F03",
"a  c #502F0C",
"s  c #5B3104",
"d  c #5B340A",
"f  c #442E16",
"g  c #482E13",
"h  c #412F1E",
"j  c #4E3012",
"k  c #5D3A14",
"l  c #513415",
"z  c #633606",
"x  c #673907",
"c  c #623608",
"v  c #643809",
"b  c #6A3B09",
"n  c #623C15",
"m  c #693F13",
"M  c #493928",
"N  c #5A3F22",
"B  c #433C34",
"V  c #493E32",
"C  c #423F3A",
"Z  c #674017",
"A  c #6B4217",
"S  c #67421D",
"D  c #6E4418",
"F  c #754717",
"G  c #714518",
"H  c #75481A",
"J  c #784919",
"K  c #4B4236",
"L  c #46423D",
"P  c #4C443C",
"I  c #4F4C3E",
"U  c #50473E",
"Y  c #54493B",
"T  c #5B4D3C",
"R  c #5A563D",
"E  c #634220",
"W  c #6B4623",
"Q  c #67482E",
"!  c #6D4E2D",
"~  c #694D30",
"^  c #654D33",
"/  c #6B5036",
"(  c #725334",
")  c #75703A",
"_  c #474540",
"`  c #4A4641",
"'  c #4D4A45",
"]  c #544C43",
"[  c #584F46",
"{  c #524F49",
"}  c #5D5344",
"|  c #55524D",
" . c #5B544A",
".. c #5E5949",
"X. c #5A5651",
"o. c #5D5A54",
"O. c #625443",
"+. c #64564C",
"@. c #62584F",
"#. c #645F42",
"$. c #635D55",
"%. c #685D54",
"&. c #615E58",
"*. c #676543",
"=. c #66634B",
"-. c #6B6846",
";. c #706946",
":. c #756D4E",
">. c #797548",
",. c #72704B",
"<. c #6B6354",
"1. c #6C6956",
"2. c #64615B",
"3. c #6D645A",
"4. c #6A6658",
"5. c #706755",
"6. c #70665C",
"7. c #736B5D",
"8. c #7D6D5E",
"9. c #7E7454",
"0. c #5E6275",
"q. c #5C627A",
"w. c #6A6661",
"e. c #776D63",
"r. c #796F65",
"t. c #7F7467",
"y. c #847F32",
"u. c #817654",
"i. c #877E6E",
"p. c #857A70",
"a. c #848146",
"s. c #928F44",
"d. c #989447",
"f. c #9B984D",
"g. c #898552",
"h. c #88855A",
"j. c #938C54",
"k. c #91895D",
"l. c #9D9957",
"z. c #93915C",
"x. c #9F9C5E",
"c. c #A09E59",
"v. c #A09D54",
"b. c #ABA64B",
"n. c #A3A045",
"m. c #B2AE4E",
"M. c #B5B14B",
"N. c #BCB94C",
"B. c #B9B549",
"V. c #A6A157",
"C. c #A8A557",
"Z. c #AAA558",
"A. c #B3AF50",
"S. c #B1AF5B",
"D. c #B9B652",
"F. c #BEBB54",
"G. c #B6B45D",
"H. c #B9B75D",
"J. c #BDBA5B",
"K. c #8C8369",
"L. c #968E6E",
"P. c #9A9860",
"I. c #9C936D",
"U. c #A19E62",
"Y. c #A7A461",
"T. c #ACA664",
"R. c #C4BE54",
"E. c #C6C354",
"W. c #CCCA57",
"Q. c #C3C25C",
"!. c #C9C65A",
"~. c #CCCA5B",
"^. c #D1CE5C",
"/. c #D7D154",
"(. c #D5D25A",
"). c #D9D75D",
"_. c #DBDA5F",
"`. c #E1D755",
"'. c #E1DE5B",
"]. c #E2D956",
"[. c #E5E25C",
"{. c #E8E55D",
"}. c #ECEA5E",
"|. c #C7C461",
" X c #D3D260",
".X c #E5E460",
"XX c #EBEA61",
"oX c #F0EF62",
"OX c #F2F162",
/* pixels */
"OXOXOXOXOXOXOXOXOXOXOXOXOXOXOXOXOXOXOXOXOXOXOXOXOXOXOXOXOXOXOXOXOXOXOXOXOXOXOXOXOXOXOXOXOXOXOXOXOXOX",
"OXOXOXOXOXOXOXOXOXOXOXOXOXOXOXOXOXOXOXOXOXOXOXOXOXOXOXOXOXOXOXOXOXOXOXOXOXOXOXOXOXOXOXOXOXOXOXOXOXOX",
"OXOXOXOXOXOXOXOXOXOXOXOXOXOXOXOXOXOXOXOXOXOXOXOXOXOXOXOXOXOXOXOXOXOXOXOXOXOXOXOXOXOXOXOXOXOXOXOXOXOX",
"OXOXOXOXOXOXOXOXOXOXOXOXOXOXOXOXOXOXOXOXOXOXOXOXOXOXOXOXOXOXOXOXOXOXOXOXOXOXOXOXOXOXOXOXOXOXOXOXOXOX",
"OXOXOXOXOXOXOXOXOXOXOXOXOXOXOXOXOXOXOXOXOXOXOXOXOXOXOXOXOXOXOXOXOXOXOXOXOXOXOXOXOXOXOXOXOXOXOXOXOXOX",
"OXOXOXOXOXOXOXOXOXOXOXOXOXOXOXOXOXOXOXOXOX~.Q.Q.XXW.F.G.Y.|.XXOXOXOXOXOXOXOXOXOXOXOXOXOXOXOXOXOXOXOX",
"OXOXOXOXOXOXOXOXOXOXOXOXOXOXOXOXOXOXOXb.=.' ' ' e L I w { 2.4.z.).OXOXOXOXOXOXOXOXOXOXOXOXOXOXOXOXOX",
"OXOXOXOXOXOXOXOXOXOXOXOXOXOXOXOXQ.x.7.o.C ' ' | L L ' ' L 6 L 8 *.P.z.G.oXOXOXOXOXOXOXOXOXOXOXOXOXOX",
"OXOXOXOXOXOXOXOXOXOXOXOXOXOXOXs.8 X.o.o.q ` ' ' 8 ' { | L 6 w : X.X.o.o.V.OXOXOXOXOXOXOXOXOXOXOXOXOX",
"OXOXOXOXOXOXOXOXOXOXOXOXOX'.>.X.{ q { { < > 1 1 > > > 1 4 4 0 C 2.o.o.o.2.'.}.OXOXOXOXOXOXOXOXOXOXOX",
"OXOXOXOXOXOXOXOXOXOXOXOX~.q o.o.X.o.0 0 $ @ X . @ o o X . X $ 7 ' X. .2.| w *.oXOXOXOXOXOXOXOXOXOXOX",
"OXOXOXOXOXOXOXOXOXOXOX.X} : 2.o.o.o.2 $ . @ r p i i i i s t @ . $ 7 _ ` e 6 8 ).OXOXOXOXOXOXOXOXOXOX",
"OXOXOXOXOXOXOXOXOXOXXX*.e q q | X.` + o y i t p i i i t s s i r . X = 9 L { L ) XXOXOXOXOXOXOXOXOXOX",
"OXOXOXOXOXOXOXOXOXOXXX8 0 8 q q 1 O # i p t t p p i p t x s i i t . X @ L ' ' 0 a.OXOXOXOXOXOXOXOXOX",
"OXOXOXOXOXOXOXOXOXOXz.w.X.B 5 > . @ z p p i y p p i i t x s p i y i . @ 2 ' | 0 q OXOXOXOXOXOXOXOXOX",
"OXOXOXOXOXOXOXOXOX Xo.o.| | = X X t z s i i y p p p i y z s i i i i y . @ 4 9 6 L XXOXOXOXOXOXOXOXOX",
"OXOXOXOXOXOXOXOXOX X$.&.&.C > . y i z i i i i i p p i t s s p i i p i r X @ C o.&.S.oXoXOXOXOXOXOXOX",
"OXOXOXOXOXOXOXOXOXc.9 9 B 5 % * y i z p p t i i p i i i p s i i y i p p X @ [ &.$.f.OXOXOXOXOXOXOXOX",
"OXOXOXOXOXOXOXOXU.$.{ B q @ . p y i z p p i i p p p i i s p p i i i p p * o ] @.L ` T.oXOXOXOXOXOXOX",
"OXOXOXOXOXOXOXOX7.&.C C 0 $ # p y p z i p t i i p p t i z i i i y i i p i . V X.e X. .OXOXOXOXOXOXOX",
"OXOXOXOXOXOXOXOXg.L 4 C 4 . t p y s c p i i i i p i y i b p i i y i p p i o @ ' q ' ,.OXOXOXOXOXOXOX",
"OXOXOXOXOXOXOX.X-.L 4 ' +   p p y s v p p i i p p i i i b i i i t i i i i # o B ' 8 N.OXOXOXOXOXOXOX",
"OXOXOXOX.XT.I.l.' q X.o.% h d g d d p i i p a p p p p z c c c z v v v v c y X 5 w | J.oXOXOXOXOXOXOX",
"OXOXOXOXj.5.J.C._ 8 o.2.% 5 - , 2 g i i i i i i p p i y y i i i i i y y i y X > | o.<.t.K.(.OXOXOXOX",
"OXOXOXOXg.*.L.j.w : o.o.% 9 - - - r i i i i i i i i i i i p i i i s p i i p X h L ' -.k.;.j.OXOXOXOX",
"OXOXOXOX(.<.<.7.: % 6 C % 3 t u S F H F F J J F J H H H H G A A m ( W d t * X V | 4  .p.Y V.OXOXOXOX",
"OXOXOXOXOXOXj.5.B % q ' 4 t p c %.0.A D A A A A m D D D A G G A G q.O.H r # X 5 ' B <.:.Z.}.OXOXOXOX",
"OXOXOXOXOXOXO.r.] K 6 X.1 t p d W Q A A A A A S m D m D A A A A m W G m i r h %.] U @.!.OXOXOXOXOXOX",
"OXOXOXOXOXOX3.[ ] $.9 P > t p d A A A A A S A A D D D G G D D D m m W ~ u.6.%.@. .]  .F.OXOXOXOXOXOX",
"OXOXOXOXOXOXj.i.O.`  .: + r i p n k k k k k k k k k k k k k k k k k n N %.] [  .r.e.$.}.OXOXOXOXOXOX",
"OXOXOXOXOXOX[.5.6. .5.7.K u i i k k k k n k k k k k k n n n n k k k n Q '  .[  .3.r.<.!.OXOXOXOXOXOX",
"OXOXOXOXOXOXOX^.[ +.C  .p.~ E i k n k k k k k k k n n k k k k k k k k E C +.] V ] B | G.OXOXOXOXOXOX",
"OXOXOXOXOXOXOXoXo.] U [ [ <.%.^ W ^ m m n k n n n n n n n S m A m / S k M g $ h C P X.J.OXOXOXOXOXOX",
"OXOXOXOXOXOXOXOX3.B [ P 3. . .@.@.q.S G D D A G D D D D D G D D S 0.O.A i r o 9 _ 4 8 W.OXOXOXOXOXOX",
"OXOXOXOXOXOXOXOXa.< B L [ r.[ d A H D D D G G G G G D D A A G A D W G G s r o 1 w B ' ^.OXOXOXOXOXOX",
"OXOXOXOXOXOXOXOXh.| L  .C [ U a l A n k n n m m m m A S A A m m m m m m c a o M &.L w W.OXOXOXOXOXOX",
"OXOXOXOXOXOXOXOX7.X.o.X.` 7 B 5 < 2 t i i i i i p i p i y i i i p i i i i r X ] $.| 9 W.OXOXOXOXOXOX",
"OXOXOXOXOXOXOXOX1.L ' &.P 9 u t f i s p p s s s s p p p p i p p d i p p s t o K X.o.w W.OXOXOXOXOXOX",
"OXOXOXOXOXOXOXOXg.X.` C 0 > i t r i i i r # # i i i r * * i y y r i i y t # o : 0 9 C H.OXOXOXOXOXOX",
"OXOXOXOXOXOXOXOX4.o.X.X.C & p p i z s i i i y p i p i y t p i i t p i i i * @ M o.o.o.g.OXOXOXOXOXOX",
"OXOXOXOXOXOXOXOX2.o.o.o.' ; i i i i s i i i y p i s i i t s i i i i i i i r o ] 2.w.o.>.OXOXOXOXOXOX",
"OXOXOXOXOXOXOXOXj.2.&.o.L { #.} } O.O.O.O.O.T T T O.T }  .T Y Y Y T } } } } | ..| ' I n.OXOXOXOXOXOX",
"OXOXOXOXOXOXOXOXoXF.D.D.=. .X.2.u.u.9.=.|  .| { { X.o.X.X.o.X. .| | | | | o.| { y.N.M.}.OXOXOXOXOXOX",
"OXOXOXOXOXOXOXOXoXOXOXOX'.`.`.[.}.oXOX{.E.m.m.b.b.D.R.R.A.d.d.m.m.R.(.{./.N.M.F.B.[.OXOXOXOXOXOXOXOX",
"OXOXOXOXOXOXOXOXOXOXOXOXOXOXOXOXOXXX[._.'.OXOXOXOXOX{.OX'.[.[.{.OXOXOXOXOXOXOXOXOXOXOXOXOXOXOXOXOXOX",
"OXOXOXOXOXOXOXOXOXOXOXOXOXOXOXOXOXOXOXOXOXOXOXOXOXOXOXOXOXOXoXoXOXOXOXOXOXOXOXOXOXOXOXOXOXOXOXOXOXOX",
"OXOXOXOXOXOXOXOXOXOXOXOXOXOXOXOXOXOXOXOXOXOXOXOXOXOXOXOXOXOXOXOXOXOXOXOXOXOXOXOXOXOXOXOXOXOXOXOXOXOX",
"OXOXOXOXOXOXOXOXOXOXOXOXOXOXOXOXOXOXOXOXOXOXOXOXOXOXOXOXOXOXOXOXOXOXOXOXOXOXOXOXOXOXOXOXOXOXOXOXOXOX",
"OXOXOXOXOXOXOXOXOXOXOXOXOXOXOXOXOXOXOXOXOXOXOXOXOXOXOXOXOXOXOXOXOXOXOXOXOXOXOXOXOXOXOXOXOXOXOXOXOXOX",
"OXOXOXOXOXOXOXOXOXOXOXOXOXOXOXOXOXOXOXOXOXOXOXOXOXOXOXOXOXOXOXOXOXOXOXOXOXOXOXOXOXOXOXOXOXOXOXOXOXOX"
};
