/* XPM */
static char *hero1680158854[] = {
/* columns rows colors chars-per-pixel */
"50 50 103 2 ",
"   c #020101",
".  c #0E0101",
"X  c #0B0B04",
"o  c #020B0C",
"O  c #130101",
"+  c #1E0101",
"@  c #111107",
"#  c #151509",
"$  c #1B1A0B",
"%  c #030F11",
"&  c #07181B",
"*  c #210101",
"=  c #2A0202",
"-  c #320202",
";  c #3C0202",
":  c #262610",
">  c #2E2E14",
",  c #333318",
"<  c #072024",
"1  c #082428",
"2  c #0A2D33",
"3  c #0B343A",
"4  c #470202",
"5  c #4C0303",
"6  c #530303",
"7  c #590303",
"8  c #650404",
"9  c #6C0404",
"0  c #740404",
"q  c #7D0505",
"w  c #46461F",
"e  c #4C4B1F",
"r  c #4D4D21",
"t  c #555525",
"y  c #5E5D27",
"u  c #5F5E29",
"i  c #605F29",
"p  c #63632A",
"a  c #777733",
"s  c #797835",
"d  c #0E3A42",
"f  c #114049",
"g  c #114E57",
"h  c #14535E",
"j  c #155561",
"k  c #185B68",
"l  c #186F7C",
"z  c #2B606B",
"x  c #737373",
"c  c #820505",
"v  c #8C0505",
"b  c #930505",
"n  c #9A0606",
"m  c #A30606",
"M  c #AC0606",
"N  c #B20606",
"B  c #BB0707",
"V  c #C10707",
"C  c #C90707",
"Z  c #838236",
"A  c #858538",
"S  c #888738",
"D  c #8B8B39",
"F  c #908F3F",
"G  c #91913B",
"H  c #999841",
"J  c #A6A545",
"K  c #A8A747",
"L  c #ACAC46",
"P  c #A8A748",
"I  c #ACAB49",
"U  c #B0AF47",
"Y  c #B0AF48",
"T  c #B6B54C",
"R  c #B8B74C",
"E  c #BBBA4D",
"W  c #C3C24F",
"Q  c #C5C550",
"!  c #CBCA53",
"~  c #D2D156",
"^  c #D6D55B",
"/  c #DCDB59",
"(  c #E4E35E",
")  c #EEED62",
"_  c #F0EF63",
"`  c #F2F162",
"'  c #1B7D8C",
"]  c #218D9F",
"[  c #258EA3",
"{  c #2290A3",
"}  c #29A7BE",
"|  c #2DB3CC",
" . c #31BFDA",
".. c #35C8E6",
"X. c #35CAE8",
"o. c #3ACCE9",
"O. c #55D3EC",
"+. c #5ED5ED",
"@. c #72DAEF",
"#. c #7CDDF1",
"$. c #8FE2F3",
"%. c #E1F7FC",
"&. c #FEFFFF",
/* pixels */
"` ` ` ` ` ` ` ` ` ` ` ` ` ` ` ` ` ` ` ` ` ` ` ` ` ` ` ` ` ` ` ` ` ` ` ` ` ` ` ` ` ` ` ` ` ` ` ` ` ` ",
"` ` ` ` ` ` ` ` ` ` ` ` ` ` ` ` ` ` ` ` ` ` ` ` ` ` ` ` ` ` ` ` ` ` ` ` ` ` ` ` ` ` ` ` ` ` ` ` ` ` ",
"` ` ` ` ` ` ` ` ` ` ` ` ` ` ` ` ` ` ` ` ` ` ` ` ` ` ` ` ` ` ` ` ` ` ` ` ` ` ` ` ` ` ` ` ` ` ` ` ` ` ",
"` ` ` ` ` ` ` ` ` ` ` ` ` ` ` ` ` ` ` ` ` ` ` ` ` ` ` ` ` ` ` ` ` ` ` ` ` ` ` ` ` ` ` ` ` ` ` ` ` ` ",
"` ` ` ` ` ` ` ` ` ` ` ` ` ` ` ` ` E L L L L L L L L U U L U U L I J ) ` ` ` ` ` ` ` ` ` ` ` ` ` ` ` ",
"` ` ` ` ` ` ` ` ` ` ` ` ` ` ` ` ` t   O O O O . O O . . O O O . .   ( ` ` ` ` ` ` ` ` ` ` ` ` ` ` ` ",
"` ` ` ` ` ` ` ` ` ` ` ` ` ` ` _ > X 4 C C C C C C C C C C C C C M   # G ` ` ` ` ` ` ` ` ` ` ` ` ` ` ",
"` ` ` ` ` ` ` ` ` ` ` ` ` ` ` ` X 9 m C C C C C C C C C C C C C V v + > a ` ` ` ` ` ` ` ` ` ` ` ` ` ",
"` ` ` ` ` ` ` ` ` ` ` ` ` ` ) ^ X n C C C C C C C C C C C C C C C C 5 + @ ` ` ` ` ` ` ` ` ` ` ` ` ` ",
"` ` ` ` ` ` ` ` ` ` ` ` ` ` Z     m C C C C C C C C C C C C C C C C C q X ` ` ` ` ` ` ` ` ` ` ` ` ` ",
"` ` ` ` ` ` ` ` ` ` ` ` ` ` S + M V C C C C B + + + + + + + + + + + + O   w ! ` ` ` ` ` ` ` ` ` ` ` ",
"` ` ` ` ` ` ` ` ` ` ` ` ` ` Z + C C C C C b 8   f k k k k k x x x x z k k o Z ! ` ` ` ` ` ` ` ` ` ` ",
"` ` ` ` ` ` ` ` ` ` ` ` ` ` S + C C C C C 6     [ X.X.X.X.o.&.&.&.&.+.X.X.&   e ` ` ` ` ` ` ` ` ` ` ",
"` ` ` ` ` ` ` ` ` ` ` ` ` ` S + C C C C C 6 o ' | X.X.X.$.&.&.&.%.o.X.X.X...h r ` ` ` ` ` ` ` ` ` ` ",
"` ` ` ` ` ` ` ` ` ` L D D S , + C C C C C 6 o ' { } X.X.O.#.#.#.@.X.X.X.X.X.j e ` ` ` ` ` ` ` ` ` ` ",
"` ` ` ` ` ` ` ` ` ` w . * * . + C C C C C 6 o ' ' {  ...X.X.X.X.X.X.X.X.X.X.j e ` ` ` ` ` ` ` ` ` ` ",
"` ` ` ` ` ` ` ` ` #   7 C C 4 * C C C C C 6 o ' ' ' '  .X.X.X.X.X.X.X.X.X.X.h e _ ` ` ` ` ` ` ` ` ` ",
"` ` ` ` ` ` ` H r   v N C C 4 + C C C C C 6 o ' ' ' ' ] ] ] ] ] ] [ ] ] ] ] d e ` ` ` ` ` ` ` ` ` ` ",
"` ` ` ` ` ` ` u . - N C C C 4 + C C C C C 6   g l ' ' ' ' ' ' ' ' ' ' ' ' h < e ` ` ` ` ` ` ` ` ` ` ",
"` ` ` ` ` ` ` u * v V C C C 4 * C C C C C 6     j ' ' ' ' ' ' ' ' ' ' ' ' o # u ` ` ` ` ` ` ` ` ` ` ",
"` ` ` ` ` ` ` u * v b M C C 4 + C C C C C B m   o 2 ' ' ' ' ' ' ' ' 1 o o   T ` ` ` ` ` ` ` ` ` ` ` ",
"` ` ` ` ` ` ` u * v v b m M ; + C C C C C C C 0 * % 3 3 3 3 3 3 3 3 o = 0 . R ` ` ` ` ` ` ` ` ` ` ` ",
"` ` ` ` ` ` ` u * v v v v v - * C C C C C C C C 4 O . O O . . . O . O 6 C O T ` ` ` ` ` ` ` ` ` ` ` ",
"` ` ` ` ` ` ` u * v v v v v - O v B C C C C C C C C C C C C C C C C C C C O T ` ` ` ` ` ` ` ` ` ` ` ",
"` ` ` ` ` ` ` u * v v v v v - O v n N C C C C C C C C C C C C C C C C C C O R ` ` ` ` ` ` ` ` ` ` ` ",
"` ` ` ` ` ` ` u * v v v v v - O v v m C C C C C C C C C C C C C C C C V B O T ` ` ` ` ` ` ` ` ` ` ` ",
"` ` ` ` ` ` ` p * v v v v v - O v v m C C C C C C C C C C C C C C C C N v . T ` ` ` ` ` ` ` ` ` ` ` ",
"` ` ` ` ` ` _ p * v v v v v - O v v v b C C C C C C C C C C C C C C C N v . R ` ` ` ` ` ` ` ` ` ` ` ",
"` ` ` ` ` ` ` p * v v v v v - O v v v v V C C C C C C C C C C C C C C N v . R ` ` ` ` ` ` ` ` ` ` ` ",
"` ` ` ` ` ` ` p * v v v v b - O v v v v V C C C C C C C C C C C C C C N v O R ` ` ` ` ` ` ` ` ` ` ` ",
"` ` ` ` ` ` ` p * v v v v v - O v v v v v N C C C C C C C C C C C C C N v . R ` ` ` ` ` ` ` ` ` ` ` ",
"` ` ` ` ` ` _ p * v v v v v - O v v v v v n m m m M C C C C C C V m m n v . R ` ` ` ` ` ` ` ` ` ` ` ",
"` ` ` ` ` ` ` p * v v v v v - O v v v v v v v v v n V V V B V V B v v v v . R ` ` ` ` ` ` ` ` ` ` ` ",
"` ` ` ` ` ` ` p * v v v v v - O v v v v v v v v v v v v v v v v v v v v v . R ` ` ` ` ` ` ` ` ` ` ` ",
"` ` ` ` ` ` ` p . + q v v v - O v v v v v v v v v v v v v v v v v v v v v . R ` ` ` ` ` ` ` ` ` ` ` ",
"` ` ` ` ` ` ` E s   4 7 7 7 * O v v v v v v v v v v v v v v v v c 7 c v v . R ` ` ` ` ` ` ` ` ` ` ` ",
"` ` ` ` ` ` ` ` _ X X # # $ X O v v v v v v v v v v v v v v v v 0   9 v v O R ` ` ` ` ` ` ` ` ` ` ` ",
"` ` ` ` ` ` ` ` _ _ _ ` ` ` Z O v v v v v v v v - . O O . . . . + q v v v . R ` ` ` ` ` ` ` ` ` ` ` ",
"` ` ` ` ` ` ` ` ` ` ` ` ` ` D O v v v v v v v v = t W Q s   5 6 7 v v v v . E ` ` ` ` ` ` ` ` ` ` ` ",
"` ` ` ` ` ` ` ` ` ` ` ` ` _ F O v v v v v v v v = G ` ` I   v v v v v v v . R ` ` ` ` ` ` ` ` ` ` ` ",
"` ` ` ` ` ` ` ` ` ` ` ` ` ` D O v v v v v v v v = G ` ` J   v v v v v v v O E ` ` ` ` ` ` ` ` ` ` ` ",
"` ` ` ` ` ` ` ` ` ` ` ` ` ` S + v v v v v v v v = G ` ` P   v v v v v 8 =   E ` ` ` ` ` ` ` ` ` ` ` ",
"` ` ` ` ` ` ` ` ` ` ` ` ` ` S O v v v v v v v v = G ` ` P   8 q v v 9 ; X Z ^ ` ` ` ` ` ` ` ` ` ` ` ",
"` ` ` ` ` ` ` ` ` ` ` ` ` ` D O v v v v v v v v = G ` ` I X   7 v v +   $ _ ` ` ` ` ` ` ` ` ` ` ` ` ",
"` ` ` ` ` ` ` ` ` ` ` ` ` ` S   O 0 v v v v c O   F ` ` ` ` : . O O   S ) ` ` ` ` ` ` ` ` ` ` ` ` ` ",
"` ` ` ` ` ` ` ` ` ` ` ` ` ` ! F   ; 6 5 5 5 4   Z ~ ` ` ` ` Y J U U L ~ ` ` ` ` ` ` ` ` ` ` ` ` ` ` ",
"` ` ` ` ` ` ` ` ` ` ` ` ` ` ` ` e e e e e e e e / ` ` ` ` ` ` ` ` ` _ ` ` ` ` ` ` ` ` ` ` ` ` ` ` ` ",
"` ` ` ` ` ` ` ` ` ` ` ` ` ` ` ` ` ` ` ` ` ` ` ` ` ` ` ` ` ` ` ` ` ` ` ` ` ` ` ` ` ` ` ` ` ` ` ` ` ` ",
"` ` ` ` ` ` ` ` ` ` ` ` ` ` ` ` ` ` ` ` ` ` ` ` ` ` ` ` ` ` ` ` ` ` ` ` ` ` ` ` ` ` ` ` ` ` ` ` ` ` ",
"` ` ` ` ` ` ` ` ` ` ` ` ` ` ` ` ` ` ` ` ` ` ` ` ` ` ` ` ` ` ` ` ` ` ` ` ` ` ` ` ` ` ` ` ` ` ` ` ` ` "
};
