/* XPM */
static char *wall1680158854[] = {
/* columns rows colors chars-per-pixel */
"50 50 41 1 ",
"  c #120211",
". c #160816",
"X c #1A0A16",
"o c #1D0E1A",
"O c #1E121E",
"+ c #23141D",
"@ c #261720",
"# c #251A24",
"$ c #2A1C24",
"% c #2A1F28",
"& c #2C2027",
"* c #2D232B",
"= c #30262D",
"- c #31282E",
"; c #2F2A31",
": c #322B32",
"> c #363236",
", c #393237",
"< c #373338",
"1 c #39353A",
"2 c #3C3A3D",
"3 c #3E3D41",
"4 c #413E42",
"5 c #3E4043",
"6 c #414242",
"7 c #444649",
"8 c #454B4B",
"9 c #494C4E",
"0 c #4C4E51",
"q c #4B5253",
"w c #525456",
"e c #535759",
"r c #545B5B",
"t c #5B5B5A",
"y c #59605E",
"u c #5A6262",
"i c #646562",
"p c #656866",
"a c #606868",
"s c #6E706C",
"d c #767A76",
/* pixels */
"26666638166266668>26636668166126666166363266266666",
":6::2668-::,,>268->2->6268:6>->6662&22>>6662-1>:>2",
"5077336869qq76338398665668899q7626828896567868q866",
"78qq2676779862678q78976667779q66688878q36766589q66",
"26851167q6372263666661>128q6682366666671>26666691>",
"6365>-1135662121:26661:>213666222>:2627>>:126265>>",
"::25;;--->-2>->;->::1:$&&+;:>6>-=&->::6=$;-;::>6>;",
"88889rry>****&&&$-;>>1111&&13888881689899yqy5889qq",
"6666367q1-;>:>>2:*==-;;>1&2qqrryyy8233366688266686",
"62626628-&+&=--;=%=:;-;--&>668588qq166666665226222",
"=1--1228=&=*$++&$@$&$$**=&=36666666&>1>>2>16>2:-11",
"6y8q85899rrr968777wq095877&22>166687rww888888qy988",
"78qq2676769956678q78956675$&&&&&=-2988q56665689q66",
"6666>>6698272226366272>>35>;-1==-;166552>266666816",
"6666:-1233332222-26661>>122223111>:2665>>;222666>2",
"1166:1622226212>222132-222122821>>1;&&:&O&&&2218>3",
"6888qqqy86698qqqa6696q9qqy6698y8qrq++++++X O668qqq",
"6626666q26666667q26666368q166621686+&::$$$+o266666",
"26266668>26>62328>26366258>26>27732&--*&$&#O263>16",
"-2>:1128-::>>>218-:1--2228;11::1222&=***$$+O>1:;>2",
"8qqq68888wwq95788>qq92&&&-&$&$+o+&->23q&..  ....16",
"689q2266668q22367968q273222==$o+&;>3327&        :6",
"66661>66886622qq5366621r966>-*o+$&-1>26=.       ->",
"2666::>>1666218>>8636>-9666:-$Xo&&-:663-++X   X+&:",
"22662522-::2215>:2226>=6662;+++&:1:&-->=&$@@**:>:1",
"668q8qqu>29qwqwq666866==>2Xoo&;29y7===-;:::-66788q",
"62665qqu6qqqqryyr16278226q ++#=>6q7--->-::6*262668",
"661>658y23666788y>66766668X+==;2782=&+&$--:&266>16",
">-$->>>9>23666368;->--,,,8+&&&--11=+$-&$$+&&:>&$>>",
"5q8q5559-:2>>22368qqqwq7808668766676qqq=+XX+oo..26",
"788q2685-&&-&&&=>8688687tttisd066678669=+*=*$&+ -6",
"6666>>662--:-&--1623716266662tw66666668-=-*$+=&o;2",
"2662;;1>1226112>:26632:>2:>668621>:2666--;=-&=++$1",
"656828q8-&&=&&&++6665>&&&&&=-138677666832872+$+++&",
"6858qqqy1==;-:::&668851:=;&:>>888wr668888qqq==-:-:",
"6666665q>=&-:::1->66666785166626677126626676*=-:::",
"26666265-&+&&=--&>26666268:66666666>36663662*$$$&=",
"$>$$>>18&&-&$++$&&:>=->>18&::;-:>12$>:-:>>13$$:&$+",
"9rqy66q8qrrr2++oooo  ;8888rrqyq788w98qu97889qqrqyy",
"688q26667789,+&==$&+o+2665868q66666278r22667679q68",
"6666>>268766:&--&$&&+&>>2686652666162661>>666628>2",
"2266-;1>>626>=-;-=&++O-:>>26652>61:2668:>>>>2666>>",
"668827q86657627682262>2888555858986&&&:==-&-2668>*",
"6666768y66287888y1667788qy266898796-:86661>&267662",
"6666666q16663666926266665q166666666788q778>:266666",
">6112668>11>22668;16116668>62>>2662=qryw962&>22126",
"->-->>>8**:>::>>8-:>&&>>28->-;>>>12+-yi661:$&>:;:>",
"qqqy85989yqyw768q9rqqq5888qrryq66q8-=162>>289qyq96",
"56882268868821266666622266866q266666&&:,6666626q22",
"6666>:2686662266166662>>668665266226226:22-266661>"
};
